<svg width="21" height="17" viewBox="0 0 21 17" fill="none" xmlns="http://www.w3.org/2000/svg">
<g clip-path="url(#clip0_44_901)">
<path d="M0 1.91956V1.3724C0 1.01877 0.138281 0.679635 0.384422 0.429587C0.630564 0.179538 0.964403 0.0390625 1.3125 0.0390625L19.6875 0.0390625C20.0356 0.0390625 20.3694 0.179538 20.6156 0.429587C20.8617 0.679635 21 1.01877 21 1.3724V1.91956L10.5 8.58623L0 1.91956ZM10.8478 9.9379C10.7435 10.004 10.623 10.0391 10.5 10.0391C10.377 10.0391 10.2565 10.004 10.1522 9.9379L0 3.4919V14.7057C0 15.0594 0.138281 15.3985 0.384422 15.6485C0.630564 15.8986 0.964403 16.0391 1.3125 16.0391H19.6875C20.0356 16.0391 20.3694 15.8986 20.6156 15.6485C20.8617 15.3985 21 15.0594 21 14.7057V3.4919L10.8478 9.9379Z" fill="black"/>
</g>
<defs>
<clipPath id="clip0_44_901">
<rect width="21" height="16" fill="white" transform="translate(0 0.0390625)"/>
</clipPath>
</defs>
</svg>
