<svg width="16" height="17" viewBox="0 0 16 17" fill="none" xmlns="http://www.w3.org/2000/svg">
<path d="M14.8169 0.0391744H1.1831C1.02984 0.0370587 0.877667 0.064972 0.735264 0.12132C0.592861 0.177668 0.463021 0.261348 0.353157 0.367579C0.243293 0.473811 0.155559 0.600514 0.0949633 0.740452C0.0343681 0.880391 0.00209931 1.03082 0 1.18316V14.895C0.00209931 15.0473 0.0343681 15.1977 0.0949633 15.3377C0.155559 15.4776 0.243293 15.6043 0.353157 15.7105C0.463021 15.8168 0.592861 15.9005 0.735264 15.9568C0.877667 16.0132 1.02984 16.0411 1.1831 16.039H14.8169C14.9702 16.0411 15.1223 16.0132 15.2647 15.9568C15.4071 15.9005 15.537 15.8168 15.6468 15.7105C15.7567 15.6043 15.8444 15.4776 15.905 15.3377C15.9656 15.1977 15.9979 15.0473 16 14.895V1.18316C15.9979 1.03082 15.9656 0.880391 15.905 0.740452C15.8444 0.600514 15.7567 0.473811 15.6468 0.367579C15.537 0.261348 15.4071 0.177668 15.2647 0.12132C15.1223 0.064972 14.9702 0.0370587 14.8169 0.0391744ZM4.85312 13.431H2.43863V6.23109H4.85312V13.431ZM3.64588 5.2231C3.31289 5.2231 2.99354 5.09162 2.75808 4.85758C2.52262 4.62353 2.39034 4.30611 2.39034 3.97512C2.39034 3.64413 2.52262 3.3267 2.75808 3.09266C2.99354 2.85862 3.31289 2.72714 3.64588 2.72714C3.82269 2.70721 4.00175 2.72462 4.17133 2.77824C4.3409 2.83187 4.49717 2.92049 4.6299 3.0383C4.76264 3.15612 4.86883 3.30047 4.94155 3.46191C5.01426 3.62335 5.05185 3.79824 5.05185 3.97512C5.05185 4.152 5.01426 4.32689 4.94155 4.48833C4.86883 4.64977 4.76264 4.79412 4.6299 4.91194C4.49717 5.02975 4.3409 5.11837 4.17133 5.172C4.00175 5.22562 3.82269 5.24303 3.64588 5.2231ZM13.5614 13.431H11.1469V9.56704C11.1469 8.59906 10.8008 7.96706 9.92354 7.96706C9.65204 7.96904 9.38768 8.05369 9.16606 8.2096C8.94445 8.36551 8.77625 8.58519 8.6841 8.83905C8.62112 9.02708 8.59383 9.22511 8.60362 9.42304V13.423H6.18913C6.18913 13.423 6.18913 6.87908 6.18913 6.22309H8.60362V7.23907C8.82296 6.86076 9.14198 6.5491 9.52631 6.33765C9.91064 6.1262 10.3457 6.02297 10.7847 6.03909C12.3944 6.03909 13.5614 7.07108 13.5614 9.28705V13.431Z" fill="#1A1E21"/>
</svg>
