<svg width="22" height="23" viewBox="0 0 22 23" fill="none" xmlns="http://www.w3.org/2000/svg">
<circle cx="11" cy="11.0391" r="10.5" stroke="#1A1E21"/>
<path d="M11.194 5.72843C12.2931 5.72843 13.1713 6.03015 13.8286 6.63358C14.4967 7.237 14.8307 8.06133 14.8307 9.10656C14.8307 10.1949 14.4859 11.0138 13.7962 11.5634C13.1066 12.1129 12.1907 12.3877 11.0485 12.3877L10.9838 13.6646H9.38367L9.30286 11.127H9.83624C10.8815 11.127 11.6789 10.9869 12.2284 10.7067C12.7887 10.4266 13.0689 9.89317 13.0689 9.10656C13.0689 8.53545 12.9019 8.08827 12.5678 7.765C12.2446 7.44174 11.792 7.28011 11.2101 7.28011C10.6282 7.28011 10.1703 7.43635 9.83624 7.74884C9.5022 8.06133 9.33518 8.49774 9.33518 9.05807H7.60571C7.60571 8.41153 7.75118 7.83505 8.04212 7.3286C8.33306 6.82215 8.74792 6.42884 9.28669 6.14868C9.83624 5.86851 10.472 5.72843 11.194 5.72843ZM10.1595 17.2367C9.82547 17.2367 9.54531 17.1235 9.31902 16.8972C9.09273 16.671 8.97959 16.3908 8.97959 16.0568C8.97959 15.7227 9.09273 15.4426 9.31902 15.2163C9.54531 14.99 9.82547 14.8768 10.1595 14.8768C10.4828 14.8768 10.7576 14.99 10.9838 15.2163C11.2101 15.4426 11.3233 15.7227 11.3233 16.0568C11.3233 16.3908 11.2101 16.671 10.9838 16.8972C10.7576 17.1235 10.4828 17.2367 10.1595 17.2367Z" fill="#1A1E21"/>
</svg>
