<svg width="18" height="13" viewBox="0 0 18 13" fill="none" xmlns="http://www.w3.org/2000/svg">
<path d="M17.9959 4.49672C18.0363 3.32635 17.7803 2.16475 17.2518 1.11976C16.8932 0.690972 16.3955 0.40161 15.8454 0.302092C13.5703 0.0956519 11.2857 0.011039 9.00153 0.0486155C6.72568 0.00933349 4.44935 0.091216 2.1822 0.293915C1.73397 0.37545 1.31917 0.585693 0.988407 0.898988C0.252508 1.57765 0.170742 2.73874 0.088975 3.71993C-0.0296584 5.4841 -0.0296584 7.25424 0.088975 9.01841C0.11263 9.57066 0.194858 10.1188 0.334275 10.6537C0.432865 11.0667 0.632333 11.4488 0.914817 11.7658C1.24783 12.0957 1.67229 12.3179 2.13314 12.4035C3.89596 12.6211 5.67217 12.7113 7.44797 12.6734C10.3098 12.7143 12.82 12.6734 15.7882 12.4444C16.2603 12.364 16.6967 12.1415 17.0392 11.8066C17.2681 11.5776 17.4391 11.2973 17.538 10.989C17.8304 10.0917 17.974 9.15259 17.9631 8.20892C17.9959 7.75103 17.9959 4.98732 17.9959 4.49672ZM7.15361 8.69952V3.63817L11.9942 6.18111C10.6369 6.93336 8.84618 7.78373 7.15361 8.69952Z" fill="white"/>
</svg>
