<svg width="20" height="21" viewBox="0 0 20 21" fill="none" xmlns="http://www.w3.org/2000/svg">
<path d="M10 7.55906C9.5095 7.55906 9.03002 7.70451 8.62219 7.97702C8.21435 8.24952 7.89648 8.63685 7.70878 9.09001C7.52107 9.54317 7.47196 10.0418 7.56765 10.5229C7.66334 11.004 7.89954 11.4459 8.24638 11.7927C8.59321 12.1395 9.0351 12.3757 9.51618 12.4714C9.99725 12.5671 10.4959 12.518 10.9491 12.3303C11.4022 12.1426 11.7895 11.8247 12.062 11.4169C12.3346 11.009 12.48 10.5296 12.48 10.0391C12.48 9.71338 12.4159 9.3909 12.2912 9.09001C12.1666 8.78912 11.9839 8.51573 11.7536 8.28544C11.5233 8.05515 11.2499 7.87247 10.9491 7.74784C10.6482 7.62321 10.3257 7.55906 10 7.55906ZM19.93 5.10906C19.9247 4.33682 19.7825 3.57163 19.51 2.84906C19.3093 2.32032 18.9987 1.84016 18.5988 1.44025C18.1989 1.04034 17.7187 0.72978 17.19 0.529063C16.4674 0.256526 15.7022 0.114323 14.93 0.109062C13.64 0.0390624 13.26 0.0390625 10 0.0390625C6.74 0.0390625 6.36 0.0390624 5.07 0.109062C4.29776 0.114323 3.53257 0.256526 2.81 0.529063C2.28126 0.72978 1.80109 1.04034 1.40119 1.44025C1.00128 1.84016 0.690718 2.32032 0.49 2.84906C0.217464 3.57163 0.0752609 4.33682 0.0699999 5.10906C-6.95388e-08 6.39906 0 6.77906 0 10.0391C0 13.2991 -6.95388e-08 13.6791 0.0699999 14.9691C0.0807639 15.744 0.222774 16.5116 0.49 17.2391C0.689828 17.7654 1.00013 18.2428 1.4 18.6391C1.79819 19.0414 2.27939 19.3519 2.81 19.5491C3.53257 19.8216 4.29776 19.9638 5.07 19.9691C6.36 20.0391 6.74 20.0391 10 20.0391C13.26 20.0391 13.64 20.0391 14.93 19.9691C15.7022 19.9638 16.4674 19.8216 17.19 19.5491C17.7206 19.3519 18.2018 19.0414 18.6 18.6391C18.9999 18.2428 19.3102 17.7654 19.51 17.2391C19.7823 16.5129 19.9244 15.7445 19.93 14.9691C20 13.6791 20 13.2991 20 10.0391C20 6.77906 20 6.39906 19.93 5.10906ZM17.39 13.1091C17.3579 13.7262 17.2262 14.334 17 14.9091C16.8059 15.3887 16.5173 15.8245 16.1514 16.1904C15.7854 16.5563 15.3497 16.8449 14.87 17.0391C14.2895 17.2527 13.6783 17.3709 13.06 17.3891C12.27 17.3891 12.06 17.3891 10 17.3891C7.94 17.3891 7.73 17.3891 6.94 17.3891C6.32173 17.3709 5.71049 17.2527 5.13 17.0391C4.6341 16.8548 4.18628 16.5608 3.82 16.1791C3.45767 15.8203 3.17784 15.3869 3 14.9091C2.78556 14.3292 2.67061 13.7172 2.66 13.0991C2.66 12.3091 2.66 12.0991 2.66 10.0391C2.66 7.97906 2.66 7.76906 2.66 6.97906C2.67061 6.36089 2.78556 5.74895 3 5.16906C3.18428 4.67317 3.47827 4.22534 3.86 3.85906C4.22033 3.49869 4.65326 3.21916 5.13 3.03906C5.71049 2.82547 6.32173 2.70727 6.94 2.68906C7.73 2.68906 7.94 2.68906 10 2.68906C12.06 2.68906 12.27 2.68906 13.06 2.68906C13.6783 2.70727 14.2895 2.82547 14.87 3.03906C15.3659 3.22334 15.8137 3.51734 16.18 3.89906C16.5423 4.25781 16.8222 4.6912 17 5.16906C17.2136 5.74955 17.3318 6.36079 17.35 6.97906C17.35 7.76906 17.35 7.97906 17.35 10.0391C17.35 12.0991 17.42 12.3091 17.39 13.0991V13.1091ZM15.79 5.66906C15.6709 5.34605 15.4832 5.05271 15.2398 4.80928C14.9964 4.56585 14.703 4.37813 14.38 4.25906C13.9365 4.10532 13.4693 4.03085 13 4.03906C12.22 4.03906 12 4.03906 10 4.03906C8 4.03906 7.78 4.03906 7 4.03906C6.52827 4.04367 6.06107 4.1317 5.62 4.29906C5.30193 4.41272 5.01169 4.59278 4.76858 4.82726C4.52548 5.06175 4.33506 5.3453 4.21 5.65906C4.06478 6.10443 3.99383 6.57066 4 7.03906C4 7.81906 4 8.03906 4 10.0391C4 12.0391 4 12.2591 4 13.0391C4.00991 13.5103 4.09777 13.9766 4.26 14.4191C4.37906 14.7421 4.56678 15.0354 4.81021 15.2788C5.05364 15.5223 5.34698 15.71 5.67 15.8291C6.09667 15.986 6.54565 16.0737 7 16.0891C7.78 16.0891 8 16.0891 10 16.0891C12 16.0891 12.22 16.0891 13 16.0891C13.4717 16.0845 13.9389 15.9964 14.38 15.8291C14.703 15.71 14.9964 15.5223 15.2398 15.2788C15.4832 15.0354 15.6709 14.7421 15.79 14.4191C15.9574 13.978 16.0454 13.5108 16.05 13.0391C16.05 12.2591 16.05 12.0391 16.05 10.0391C16.05 8.03906 16.05 7.81906 16.05 7.03906C16.0503 6.56686 15.9621 6.09879 15.79 5.65906V5.66906ZM10 13.8591C9.49882 13.8591 9.00257 13.7602 8.53966 13.5681C8.07676 13.376 7.6563 13.0945 7.30238 12.7396C6.94846 12.3848 6.66803 11.9636 6.47714 11.5002C6.28626 11.0368 6.18868 10.5402 6.19 10.0391C6.19 9.28311 6.4143 8.54416 6.83449 7.91575C7.25468 7.28734 7.85187 6.79773 8.55047 6.5089C9.24907 6.22007 10.0177 6.145 10.7589 6.29321C11.5002 6.44142 12.1809 6.80623 12.7147 7.34147C13.2485 7.87671 13.6116 8.5583 13.7578 9.29997C13.9041 10.0416 13.827 10.81 13.5363 11.5079C13.2457 12.2057 12.7545 12.8016 12.125 13.2201C11.4955 13.6387 10.7559 13.861 10 13.8591ZM14 6.96906C13.7789 6.94566 13.5744 6.84128 13.4257 6.67603C13.277 6.51078 13.1947 6.29635 13.1947 6.07406C13.1947 5.85177 13.277 5.63734 13.4257 5.47209C13.5744 5.30684 13.7789 5.20246 14 5.17906C14.2211 5.20246 14.4256 5.30684 14.5743 5.47209C14.723 5.63734 14.8053 5.85177 14.8053 6.07406C14.8053 6.29635 14.723 6.51078 14.5743 6.67603C14.4256 6.84128 14.2211 6.94566 14 6.96906Z" fill="white"/>
</svg>
