<svg width="18" height="16" viewBox="0 0 18 16" fill="none" xmlns="http://www.w3.org/2000/svg">
<path d="M18 2.62615C17.3235 2.91963 16.6081 3.11364 15.876 3.20215C16.6484 2.74073 17.2271 2.01485 17.505 1.15915C16.7792 1.5912 15.9847 1.89561 15.156 2.05915C14.6021 1.45846 13.8645 1.05861 13.0588 0.922312C12.2532 0.786012 11.4251 0.920968 10.7044 1.30602C9.98373 1.69106 9.41124 2.30442 9.07672 3.0499C8.74219 3.79537 8.66456 4.6308 8.856 5.42515C7.38848 5.35092 5.953 4.9688 4.64279 4.30362C3.33258 3.63844 2.17696 2.70507 1.251 1.56415C0.926224 2.1313 0.755567 2.77359 0.756 3.42715C0.754848 4.03409 0.903795 4.6319 1.18958 5.16735C1.47536 5.70281 1.88912 6.15929 2.394 6.49615C1.80718 6.48018 1.2329 6.32272 0.72 6.03715V6.08215C0.724398 6.93255 1.02239 7.75533 1.56358 8.41132C2.10477 9.0673 2.85593 9.51622 3.69 9.68215C3.36893 9.77986 3.03559 9.83137 2.7 9.83515C2.4677 9.83243 2.23598 9.81137 2.007 9.77215C2.24452 10.5037 2.70416 11.143 3.32197 11.6011C3.93977 12.0592 4.68502 12.3133 5.454 12.3281C4.15548 13.3499 2.5523 13.9075 0.9 13.9121C0.599162 13.9131 0.298562 13.8951 0 13.8581C1.68699 14.9474 3.65293 15.5256 5.661 15.5231C7.04672 15.5375 8.42142 15.2757 9.7048 14.7528C10.9882 14.23 12.1545 13.4566 13.1357 12.478C14.1168 11.4993 14.8932 10.335 15.4193 9.05296C15.9454 7.77093 16.2108 6.3969 16.2 5.01115C16.2 4.85815 16.2 4.69615 16.2 4.53415C16.9062 4.00748 17.5153 3.36183 18 2.62615Z" fill="white"/>
</svg>
