<svg width="18" height="13" viewBox="0 0 18 13" fill="none" xmlns="http://www.w3.org/2000/svg">
<path d="M17.9959 4.26824C18.0363 3.15786 17.7803 2.0558 17.2518 1.06437C16.8932 0.657559 16.3955 0.383028 15.8454 0.28861C13.5703 0.0927514 11.2857 0.0124753 9.00153 0.0481259C6.72568 0.0108573 4.44935 0.0885429 2.1822 0.280853C1.73397 0.358209 1.31917 0.557675 0.988407 0.854912C0.252508 1.49879 0.170742 2.60036 0.088975 3.53127C-0.0296584 5.20501 -0.0296584 6.88443 0.088975 8.55817C0.11263 9.08212 0.194858 9.60221 0.334275 10.1097C0.432865 10.5015 0.632333 10.864 0.914817 11.1647C1.24783 11.4777 1.67229 11.6885 2.13314 11.7698C3.89596 11.9762 5.67217 12.0618 7.44797 12.0258C10.3098 12.0646 12.82 12.0258 15.7882 11.8086C16.2603 11.7323 16.6967 11.5212 17.0392 11.2035C17.2681 10.9862 17.4391 10.7203 17.538 10.4277C17.8304 9.57644 17.974 8.68548 17.9631 7.79017C17.9959 7.35575 17.9959 4.73369 17.9959 4.26824ZM7.15361 8.25563V3.4537L11.9942 5.8663C10.6369 6.57999 8.84618 7.38678 7.15361 8.25563Z" fill="#1A1E21"/>
</svg>
